<svg width="24" height="18" viewBox="0 0 24 18" fill="none" xmlns="http://www.w3.org/2000/svg">
<path d="M13.5 2.25C13.5 1.83579 13.8358 1.5 14.25 1.5L23.25 1.5C23.6642 1.5 24 1.83579 24 2.25C24 2.66421 23.6642 3 23.25 3H14.25C13.8358 3 13.5 2.66421 13.5 2.25Z" fill="#212529"/>
<path d="M14.25 6C13.8358 6 13.5 6.33579 13.5 6.75C13.5 7.16421 13.8358 7.5 14.25 7.5H23.25C23.6642 7.5 24 7.16421 24 6.75C24 6.33579 23.6642 6 23.25 6H14.25Z" fill="#212529"/>
<path d="M18.75 10.5C18.3358 10.5 18 10.8358 18 11.25C18 11.6642 18.3358 12 18.75 12H23.25C23.6642 12 24 11.6642 24 11.25C24 10.8358 23.6642 10.5 23.25 10.5H18.75Z" fill="#212529"/>
<path d="M18.75 15C18.3358 15 18 15.3358 18 15.75C18 16.1642 18.3358 16.5 18.75 16.5H23.25C23.6642 16.5 24 16.1642 24 15.75C24 15.3358 23.6642 15 23.25 15H18.75Z" fill="#212529"/>
<path d="M13.5 18C13.5 18 15 18 15 16.5C15 15 13.5 10.5 7.5 10.5C1.5 10.5 0 15 0 16.5C0 18 1.5 18 1.5 18H13.5ZM1.53352 16.5C1.52832 16.4994 1.52105 16.4984 1.51222 16.497C1.50807 16.4963 1.50399 16.4955 1.50001 16.4948C1.50219 16.0987 1.75031 14.9504 2.63889 13.9137C3.47001 12.944 4.92403 12 7.5 12C10.076 12 11.53 12.944 12.3611 13.9137C13.2497 14.9504 13.4978 16.0987 13.5 16.4948C13.496 16.4955 13.4919 16.4963 13.4878 16.497C13.479 16.4984 13.4717 16.4994 13.4665 16.5H1.53352Z" fill="#212529"/>
<path d="M7.5 7.5C9.15685 7.5 10.5 6.15685 10.5 4.5C10.5 2.84315 9.15685 1.5 7.5 1.5C5.84315 1.5 4.5 2.84315 4.5 4.5C4.5 6.15685 5.84315 7.5 7.5 7.5ZM12 4.5C12 6.98528 9.98528 9 7.5 9C5.01472 9 3 6.98528 3 4.5C3 2.01472 5.01472 0 7.5 0C9.98528 0 12 2.01472 12 4.5Z" fill="#212529"/>
</svg>
