<svg width="24" height="24" viewBox="0 0 24 24" fill="none" xmlns="http://www.w3.org/2000/svg">
<path d="M22.5 21C22.5 21 24 21 24 19.5C24 18 22.5 13.5 16.5 13.5C10.5 13.5 9 18 9 19.5C9 21 10.5 21 10.5 21H22.5ZM10.5335 19.5C10.5283 19.4994 10.521 19.4984 10.5122 19.497C10.5081 19.4963 10.504 19.4955 10.5 19.4948C10.5022 19.0987 10.7503 17.9504 11.6389 16.9137C12.47 15.944 13.924 15 16.5 15C19.076 15 20.53 15.944 21.3611 16.9137C22.2497 17.9504 22.4978 19.0987 22.5 19.4948C22.496 19.4955 22.4919 19.4963 22.4878 19.497C22.479 19.4984 22.4717 19.4994 22.4665 19.5H10.5335Z" fill="#212529"/>
<path d="M16.5 10.5C18.1569 10.5 19.5 9.15685 19.5 7.5C19.5 5.84315 18.1569 4.5 16.5 4.5C14.8431 4.5 13.5 5.84315 13.5 7.5C13.5 9.15685 14.8431 10.5 16.5 10.5ZM21 7.5C21 9.98528 18.9853 12 16.5 12C14.0147 12 12 9.98528 12 7.5C12 5.01472 14.0147 3 16.5 3C18.9853 3 21 5.01472 21 7.5Z" fill="#212529"/>
<path d="M10.4039 13.9199C9.8522 13.7435 9.2393 13.6152 8.55942 13.5496C8.22292 13.5171 7.87002 13.5 7.5 13.5C1.5 13.5 0 18 0 19.5C0 20.5 0.5 21 1.5 21H7.82454C7.61334 20.5739 7.5 20.0687 7.5 19.5C7.5 17.9846 8.06587 16.437 9.13473 15.1443C9.4999 14.7026 9.9238 14.2907 10.4039 13.9199ZM7.38006 15.0007C6.48383 16.3704 6 17.932 6 19.5H1.5C1.5 19.1089 1.74637 17.955 2.63888 16.9137C3.45703 15.9592 4.87874 15.0295 7.38006 15.0007Z" fill="#212529"/>
<path d="M2.25 8.25C2.25 5.76472 4.26472 3.75 6.75 3.75C9.23528 3.75 11.25 5.76472 11.25 8.25C11.25 10.7353 9.23528 12.75 6.75 12.75C4.26472 12.75 2.25 10.7353 2.25 8.25ZM6.75 5.25C5.09315 5.25 3.75 6.59315 3.75 8.25C3.75 9.90685 5.09315 11.25 6.75 11.25C8.40685 11.25 9.75 9.90685 9.75 8.25C9.75 6.59315 8.40685 5.25 6.75 5.25Z" fill="#212529"/>
</svg>
