<svg width="24" height="24" viewBox="0 0 24 24" fill="none" xmlns="http://www.w3.org/2000/svg">
<path d="M7.5 6C7.08579 6 6.75 6.33579 6.75 6.75C6.75 7.16421 7.08579 7.5 7.5 7.5H16.5C16.9142 7.5 17.25 7.16421 17.25 6.75C17.25 6.33579 16.9142 6 16.5 6H7.5Z" fill="#0D6EFD"/>
<path d="M6.75 9.75C6.75 9.33579 7.08579 9 7.5 9H16.5C16.9142 9 17.25 9.33579 17.25 9.75C17.25 10.1642 16.9142 10.5 16.5 10.5H7.5C7.08579 10.5 6.75 10.1642 6.75 9.75Z" fill="#0D6EFD"/>
<path d="M7.5 12C7.08579 12 6.75 12.3358 6.75 12.75C6.75 13.1642 7.08579 13.5 7.5 13.5H16.5C16.9142 13.5 17.25 13.1642 17.25 12.75C17.25 12.3358 16.9142 12 16.5 12H7.5Z" fill="#0D6EFD"/>
<path d="M7.5 15C7.08579 15 6.75 15.3358 6.75 15.75C6.75 16.1642 7.08579 16.5 7.5 16.5H12C12.4142 16.5 12.75 16.1642 12.75 15.75C12.75 15.3358 12.4142 15 12 15H7.5Z" fill="#0D6EFD"/>
<path d="M3 3C3 1.34314 4.34315 0 6 0H18C19.6569 0 21 1.34315 21 3V21C21 22.6569 19.6569 24 18 24H6C4.34315 24 3 22.6569 3 21V3ZM18 1.5H6C5.17157 1.5 4.5 2.17157 4.5 3V21C4.5 21.8284 5.17157 22.5 6 22.5H18C18.8284 22.5 19.5 21.8284 19.5 21V3C19.5 2.17157 18.8284 1.5 18 1.5Z" fill="#0D6EFD"/>
</svg>
