<svg width="24" height="24" viewBox="0 0 24 24" fill="none" xmlns="http://www.w3.org/2000/svg">
<g id="boxes" clip-path="url(#clip0_10069_14572)">
<path id="Vector" d="M11.628 0.0987581C11.7413 0.0340403 11.8695 0 12 0C12.1305 0 12.2587 0.0340403 12.372 0.0987581L17.997 3.31326C18.1118 3.37883 18.2072 3.47357 18.2736 3.5879C18.34 3.70222 18.375 3.83206 18.375 3.96426V9.95676L23.622 12.9568C23.7364 13.0221 23.8315 13.1163 23.8978 13.2301C23.9642 13.3439 23.9994 13.4731 24 13.6048V20.0338C24 20.166 23.965 20.2958 23.8986 20.4101C23.8322 20.5244 23.7368 20.6192 23.622 20.6848L17.997 23.8993C17.8837 23.964 17.7555 23.998 17.625 23.998C17.4945 23.998 17.3663 23.964 17.253 23.8993L12 20.8993L6.747 23.9008C6.6337 23.9655 6.50548 23.9995 6.375 23.9995C6.24452 23.9995 6.1163 23.9655 6.003 23.9008L0.378 20.6863C0.263209 20.6207 0.16779 20.5259 0.101408 20.4116C0.0350269 20.2973 4.26406e-05 20.1675 0 20.0353L0 13.6063C4.26406e-05 13.4741 0.0350269 13.3442 0.101408 13.2299C0.16779 13.1156 0.263209 13.0208 0.378 12.9553L5.625 9.95676V3.96426C5.62504 3.83206 5.66003 3.70222 5.72641 3.5879C5.79279 3.47357 5.88821 3.37883 6.003 3.31326L11.628 0.0987581ZM6.375 11.2558L2.262 13.6063L6.375 15.9568L10.488 13.6063L6.375 11.2558ZM11.25 14.8993L7.125 17.2558V21.9568L11.25 19.6003V14.8993ZM12.75 19.6003L16.875 21.9568V17.2558L12.75 14.8993V19.6003ZM13.512 13.6063L17.625 15.9568L21.738 13.6063L17.625 11.2558L13.512 13.6063ZM16.875 9.95676V5.25576L12.75 7.61376V12.3148L16.875 9.95676ZM11.25 12.3148V7.61376L7.125 5.25576V9.95676L11.25 12.3148ZM7.887 3.96426L12 6.31476L16.113 3.96426L12 1.61376L7.887 3.96426ZM22.5 14.8993L18.375 17.2558V21.9568L22.5 19.6003V14.8993ZM5.625 21.9568V17.2558L1.5 14.8993V19.6003L5.625 21.9568Z" fill="#212529"/>
</g>
<defs>
<clipPath id="clip0_10069_14572">
<rect width="24" height="24" fill="white"/>
</clipPath>
</defs>
</svg>
