<svg width="82" height="24" viewBox="0 0 82 24" fill="none" xmlns="http://www.w3.org/2000/svg">
<rect width="31.9473" height="23.6047" rx="3.90698" fill="#212529"/>
<path d="M28.5945 15.7436V17.8945H21.6608V15.7436H28.5945ZM28.5472 7.18196L22.8361 17.8945H21.0534V16.3797L26.8354 5.70898H28.5472V7.18196ZM27.7268 5.70898V7.86823H20.9824V5.70898H27.7268Z" fill="white"/>
<path d="M17.2438 5.70898V17.8945H14.7432V5.70898H17.2438ZM20.0598 5.70898V7.86823H11.9902V5.70898H20.0598Z" fill="white"/>
<path d="M8.48872 14.6718C8.48872 14.4653 8.47031 14.2812 8.4335 14.1194C8.39669 13.952 8.3257 13.7986 8.22052 13.6591C8.11535 13.514 7.95758 13.369 7.74723 13.2239C7.53688 13.0788 7.26079 12.9282 6.91897 12.772C6.49827 12.5879 6.08808 12.387 5.68842 12.1694C5.29401 11.9462 4.93904 11.6896 4.62351 11.3994C4.30799 11.1037 4.05556 10.7578 3.86625 10.3617C3.67693 9.95993 3.58227 9.49126 3.58227 8.95563C3.58227 8.43675 3.6743 7.96807 3.85836 7.54961C4.04242 7.12558 4.3001 6.7657 4.6314 6.46999C4.9627 6.1687 5.35448 5.93995 5.80674 5.78372C6.25899 5.62192 6.75595 5.54102 7.2976 5.54102C8.02858 5.54102 8.66752 5.70003 9.21443 6.01806C9.76134 6.33051 10.1873 6.77128 10.4923 7.34039C10.7973 7.90391 10.9498 8.56228 10.9498 9.31551H8.45717C8.45717 8.98632 8.4151 8.69898 8.33096 8.45348C8.24681 8.20241 8.11535 8.00713 7.93655 7.86764C7.76301 7.72258 7.53425 7.65004 7.25027 7.65004C6.98734 7.65004 6.7691 7.70863 6.59556 7.8258C6.42202 7.94297 6.29318 8.10198 6.20904 8.30284C6.1249 8.5037 6.08282 8.72688 6.08282 8.97237C6.08282 9.16765 6.1249 9.34062 6.20904 9.49126C6.29843 9.64191 6.41676 9.78139 6.564 9.90972C6.71651 10.038 6.89531 10.1608 7.1004 10.278C7.31075 10.3951 7.53688 10.5067 7.77878 10.6127C8.29414 10.8303 8.75166 11.0675 9.15133 11.3241C9.55625 11.5808 9.89281 11.8709 10.161 12.1945C10.4345 12.5125 10.6396 12.8752 10.7763 13.2825C10.9183 13.6842 10.9893 14.1417 10.9893 14.655C10.9893 15.1795 10.9051 15.6538 10.7368 16.0778C10.5686 16.4963 10.3267 16.8533 10.0111 17.149C9.70087 17.4448 9.32224 17.6707 8.87524 17.8269C8.42824 17.9832 7.92866 18.0613 7.37649 18.0613C6.85587 18.0613 6.35365 17.9832 5.86984 17.8269C5.38604 17.6651 4.95482 17.4196 4.57618 17.0905C4.20281 16.7613 3.90569 16.34 3.68482 15.8267C3.46395 15.3134 3.35352 14.7025 3.35352 13.9939H5.86196C5.86196 14.3565 5.89088 14.6662 5.94873 14.9228C6.01183 15.1739 6.10649 15.3748 6.2327 15.5254C6.36417 15.6761 6.52456 15.7877 6.71388 15.8602C6.90845 15.9271 7.13984 15.9606 7.40804 15.9606C7.6815 15.9606 7.89711 15.902 8.05487 15.7849C8.21263 15.6677 8.32307 15.5143 8.38617 15.3246C8.45454 15.1293 8.48872 14.9117 8.48872 14.6718Z" fill="white"/>
<path d="M77.54 13.591H75.213V11.4318H77.5321C77.8371 11.4318 78.0817 11.3593 78.2657 11.2142C78.4498 11.0636 78.5839 10.8599 78.668 10.6033C78.7522 10.341 78.7942 10.0453 78.7942 9.71612C78.7942 9.3702 78.7522 9.04938 78.668 8.75367C78.5839 8.45796 78.4498 8.22083 78.2657 8.04229C78.0817 7.86375 77.8398 7.77448 77.54 7.77448H76.0728V17.8007H73.5723V5.61523H77.54C78.3236 5.61523 78.9967 5.79099 79.5594 6.14249C80.1273 6.494 80.5638 6.97662 80.8688 7.59036C81.1738 8.2041 81.3263 8.9071 81.3263 9.69939C81.3263 10.4805 81.1738 11.164 80.8688 11.7498C80.5638 12.3301 80.1273 12.782 79.5594 13.1056C78.9967 13.4292 78.3236 13.591 77.54 13.591Z" fill="#212529"/>
<path d="M69.407 5.61523H71.9154V13.9426C71.9154 14.8855 71.7524 15.6554 71.4264 16.2524C71.1056 16.8439 70.6586 17.2791 70.0854 17.558C69.5122 17.8314 68.8469 17.9681 68.0897 17.9681C67.3271 17.9681 66.6566 17.8314 66.0782 17.558C65.4997 17.2791 65.0475 16.8439 64.7214 16.2524C64.4006 15.6554 64.2402 14.8855 64.2402 13.9426V5.61523H66.7566V13.9426C66.7566 14.4614 66.8065 14.8576 66.9064 15.131C67.0064 15.3988 67.1536 15.5801 67.3482 15.675C67.548 15.7698 67.7952 15.8172 68.0897 15.8172C68.3894 15.8172 68.6339 15.7698 68.8233 15.675C69.0178 15.5801 69.1625 15.3988 69.2571 15.131C69.357 14.8576 69.407 14.4614 69.407 13.9426V5.61523Z" fill="#212529"/>
<path d="M62.7583 10.7784V12.7201C62.7583 13.5849 62.6583 14.3465 62.4585 15.0048C62.2587 15.6576 61.9721 16.2044 61.5987 16.6452C61.2306 17.086 60.7888 17.418 60.2735 17.6411C59.7634 17.8587 59.1981 17.9675 58.5775 17.9675C57.9517 17.9675 57.3811 17.8587 56.8658 17.6411C56.3504 17.418 55.9061 17.086 55.5327 16.6452C55.1593 16.2044 54.8701 15.6576 54.665 15.0048C54.4652 14.3465 54.3652 13.5849 54.3652 12.7201V10.7784C54.3652 9.90245 54.4652 9.13249 54.665 8.46853C54.8701 7.799 55.1567 7.24385 55.5248 6.80307C55.8982 6.35671 56.3399 6.01916 56.85 5.7904C57.3654 5.56164 57.9359 5.44727 58.5617 5.44727C59.1875 5.44727 59.7555 5.56164 60.2656 5.7904C60.781 6.01916 61.2227 6.35671 61.5908 6.80307C61.9642 7.24385 62.2508 7.799 62.4506 8.46853C62.6557 9.13249 62.7583 9.90245 62.7583 10.7784ZM60.2419 12.7201V10.7617C60.2419 10.1982 60.2051 9.71833 60.1315 9.32219C60.0631 8.92605 59.958 8.60244 59.816 8.35137C59.674 8.10029 59.4978 7.91617 59.2875 7.799C59.0824 7.68183 58.8405 7.62325 58.5617 7.62325C58.2778 7.62325 58.0306 7.68183 57.8203 7.799C57.6099 7.91617 57.4337 8.10029 57.2917 8.35137C57.155 8.60244 57.0525 8.92605 56.9841 9.32219C56.921 9.71833 56.8895 10.1982 56.8895 10.7617V12.7201C56.8895 13.2669 56.9236 13.7355 56.992 14.1261C57.0604 14.5166 57.1655 14.8347 57.3075 15.0802C57.4495 15.3257 57.6257 15.507 57.836 15.6242C58.0464 15.7413 58.2935 15.7999 58.5775 15.7999C58.851 15.7999 59.0903 15.7413 59.2953 15.6242C59.5057 15.507 59.6792 15.3257 59.816 15.0802C59.958 14.8347 60.0631 14.5166 60.1315 14.1261C60.2051 13.7355 60.2419 13.2669 60.2419 12.7201Z" fill="#212529"/>
<path d="M45.5 5.61523H49.31C50.0778 5.61523 50.7378 5.75472 51.2899 6.03369C51.8421 6.31266 52.2654 6.72554 52.5599 7.27233C52.8597 7.81911 53.0095 8.49423 53.0095 9.29767C53.0095 9.97836 52.9254 10.553 52.7571 11.0217C52.5888 11.4848 52.3522 11.8698 52.0472 12.1767C51.7422 12.4835 51.382 12.7318 50.9665 12.9215L50.1698 13.4153H47.1329L47.125 11.2644H49.2469C49.5309 11.2644 49.7649 11.1947 49.9489 11.0552C50.133 10.9157 50.2697 10.7176 50.3591 10.461C50.4538 10.1987 50.5011 9.88909 50.5011 9.532C50.5011 9.16376 50.4564 8.84852 50.367 8.58629C50.2829 8.32405 50.154 8.12319 49.9805 7.98371C49.8122 7.84422 49.5887 7.77448 49.31 7.77448H48.0084V17.8007H45.5V5.61523ZM50.6589 17.8007L48.5843 12.3859L51.2189 12.3775L53.3408 17.6752V17.8007H50.6589Z" fill="#212529"/>
<path d="M43.9292 11.3397V16.4031C43.7609 16.5872 43.5111 16.802 43.1798 17.0475C42.8538 17.293 42.4331 17.5078 41.9177 17.6919C41.4076 17.876 40.795 17.9681 40.0798 17.9681C39.4329 17.9681 38.8466 17.8621 38.3207 17.6501C37.8001 17.438 37.3531 17.1172 36.9797 16.6876C36.6116 16.2524 36.3276 15.7084 36.1278 15.0556C35.9332 14.4028 35.8359 13.6273 35.8359 12.729V10.6869C35.8359 9.79979 35.9332 9.02703 36.1278 8.36866C36.3224 7.71029 36.6011 7.1635 36.9639 6.7283C37.3268 6.29311 37.758 5.9695 38.2576 5.75748C38.7572 5.54546 39.3199 5.43945 39.9457 5.43945C40.8344 5.43945 41.5654 5.59847 42.1386 5.9165C42.7118 6.23452 43.143 6.69762 43.4323 7.30578C43.7215 7.91394 43.8845 8.65879 43.9213 9.54034H41.5154C41.4839 9.04935 41.4102 8.66158 41.2946 8.37703C41.1841 8.09248 41.0237 7.88883 40.8134 7.76608C40.6083 7.64333 40.3427 7.58196 40.0167 7.58196C39.7432 7.58196 39.5013 7.63775 39.291 7.74934C39.0859 7.85535 38.9123 8.0311 38.7703 8.2766C38.6336 8.51652 38.5311 8.83454 38.4627 9.23068C38.3943 9.62124 38.3602 10.1011 38.3602 10.6702V12.729C38.3602 13.2981 38.3943 13.7807 38.4627 14.1769C38.5363 14.5674 38.6468 14.8854 38.794 15.1309C38.9465 15.3709 39.1411 15.5466 39.3777 15.6582C39.6196 15.7642 39.9062 15.8172 40.2375 15.8172C40.4794 15.8172 40.674 15.7893 40.8213 15.7335C40.9738 15.6777 41.0974 15.6136 41.192 15.541C41.2919 15.4685 41.3708 15.4183 41.4287 15.3904V13.273H39.922V11.3397H43.9292Z" fill="#212529"/>
</svg>
